<svg xmlns="http://www.w3.org/2000/svg" width="2500" height="794.4" viewBox="0 0 2500 794.4"><path fill="#629ac1" d="M1104.4 405.1h25.9l3 .6c6.4 1.5 12.9 2.6 19.2 4.7s10.4 4.7 13.2 9.6c4.3 7.4 10.5 11.1 18.7 12.1s14.7 1.1 21.9 2.7c10.1 2.2 20.1 5.3 30.1 8.1a19.2 19.2 0 0 1 5.4 2.6c6.1 3.9 6.5 6.7 1.1 11.5a49.4 49.4 0 0 0-9.3 11.5c-6.6 10.8-17.4 15.2-29.5 17-4.5.7-9 1.8-13.5 2.6s-6.8 1.5-10.1 1.1a19.3 19.3 0 0 0-8.3.6c-2.7.9-5.4 1.6-7.9 2.7-6.2 2.6-12.5 5.3-18.5 8.2a4.5 4.5 0 0 0-2.1 3.6c-.3 8.1-.3 16.2-.4 24.3a48.7 48.7 0 0 1-.4 6.6c-.9 4.7-3.7 6.4-8.5 5.9s-10.8-2.1-14.9-6.9c-2.1 5-3.7 9.7-6 14-3.9 7.6-5.1 15.7-5.1 24.1.1 20 .3 40 0 60a35.7 35.7 0 0 1-2.9 13.6c-4.7 10.8-12.5 19.6-20.4 28.2-5.5 6-12 11.2-18.4 16.3-8.9 7.1-18.2 13.6-27.3 20.4-.5.4-1.2.9-1.3 1.4-1.5 5-3.7 9.9-4 14.9-.7 12.9-.6 25.8-.9 38.7-.1 1.8.8 2.4 2.3 2.5s4.6-.2 6.8.3 5.3 1 6.7 2.6c3.6 4 7.7 7.6 9.8 12.9 1 2.8 1.3 4.9-1.2 6.6a26.5 26.5 0 0 1-8 3.7 57.4 57.4 0 0 1-11 1.8 51.9 51.9 0 0 1-23.1-2.5 4.5 4.5 0 0 1-1.4-1c-2.1-2.3-4.2-4.6-6.2-7a32.3 32.3 0 0 1-3.7-5.4 95.7 95.7 0 0 1-4.5-9.8 31.2 31.2 0 0 1-2.5-8.4c-.7-5.5 0-10.9 3.4-15.5a1.5 1.5 0 0 0 .4-1.1c.1-5.9 0-11.7 0-17.9-12.5 5.8-25 4.9-37.4 2s-23.4-6.3-35.1-9.6c-14.3-4-28.5-8-41.8-14.8a53.2 53.2 0 0 0-10.5-4.4 127.6 127.6 0 0 0-15.1-3.6c-15.9-2.9-32-5.5-47.9-8.6s-31.4-7.7-45.3-16.5c-4.5-2.8-9.4-5.1-13.9-7.9s-6.6-1.5-9.8.1a36.5 36.5 0 0 0-15.4 14.2c-7 12-17.1 19.9-29.5 25.4L674 715.5c-6.1 2.7-8.8 6.6-7.1 14.7s5 19 7.8 28.4a4.8 4.8 0 0 0 3 2.9c12.2 3.1 19.3 10.9 21.7 23.2.4 2.1.1 3.4-1.7 3.7a48.5 48.5 0 0 1-9.3 1.3c-5.2 0-10.4-.4-15.6 1.3a10.1 10.1 0 0 1-6.2-.2 88 88 0 0 1-10.9-4.8 6.5 6.5 0 0 1-2.9-3.6c-2.1-7-3.9-14-5.7-21s-4.8-15-10.5-20.7-9.5-13.8-10.8-22.3a9.3 9.3 0 0 1 .3-4.7c2.1-6 4.5-12 6.7-18 3.4-9.5 4.5-19.3.4-28.6a131.1 131.1 0 0 1-11.1-43.4c-.5-6.6-2.2-13.2-.4-19.9.8-2.7 1.9-5.3 2.9-8.4l-2.3 1.6c-10 7.9-16.6 18.3-20.5 30.4-9.6 29.3-24.8 55.3-46.9 76.8-11.9 11.4-25.5 19.6-42.7 19.4v-1.1c3-3.5 5.8-7.3 9.2-10.3s9.6-7.9 14.5-11.7a83.5 83.5 0 0 0 24-28.2c5.6-10.9 10.2-22.4 14.8-33.8 5.6-13.5 10.7-27.2 19.1-39.3s20.1-24.6 35.8-30.3c2.6-.9 5.2-2.3 7.8-3.4 12-5.2 24-10.1 37.1-11.4 6.5-.6 13 0 19.5-.5 15.8-1.2 31.6-2.8 47.4-4.2s30.7-2.5 46.1-1.6l69.6 4.3c13.3.9 26.7 1.9 40 3.4 6.2.7 12.3 1.1 18.1-.9 16.6-5.7 34-8.1 50.9-12.4 12.1-3 24-6.5 35-12.6 6.8-3.8 12.9-8.5 16.9-15.5 1.5-2.6 2.4-5.6 3.7-8.3 4.3-8.8 8.7-17.5 13-26.2 7.3-14.5 15.1-28.6 26.3-40.5a3.5 3.5 0 0 0 .5-2.5c-.8-6.6 1.7-12.4 5.3-17.5 1.7-2.4 5.1-4.2 8.1-5.3 9.7-3.3 19.2-7.4 29.5-8.7z"/><path fill="#fff" d="M512.2 723.6c17.2.2 30.8-8 42.7-19.4 22.1-21.5 37.3-47.5 46.9-76.8 3.9-12.1 10.5-22.5 20.5-30.4l2.3-1.6c-1 3.1-2.1 5.7-2.9 8.4-1.8 6.7-.1 13.3.4 19.9a131.1 131.1 0 0 0 11.1 43.4c4.1 9.3 3 19.1-.4 28.6-2.2 6-4.6 12-6.7 18a9.3 9.3 0 0 0-.3 4.7c1.3 8.5 4.5 16.1 10.8 22.3s8.5 13 10.5 20.7 3.6 14 5.7 21a6.5 6.5 0 0 0 2.9 3.6 88 88 0 0 0 10.9 4.8 10.1 10.1 0 0 0 6.2.2c5.2-1.7 10.4-1.3 15.6-1.3a48.5 48.5 0 0 0 9.3-1.3c1.8-.3 2.1-1.6 1.7-3.7-2.4-12.3-9.5-20.1-21.7-23.2a4.8 4.8 0 0 1-3-2.9c-2.8-9.4-5.7-18.8-7.8-28.4s1-12 7.1-14.7l25.3-11.6c12.4-5.5 22.5-13.4 29.5-25.4a36.5 36.5 0 0 1 15.4-14.2c3.2-1.6 6.4-2.2 9.8-.1s9.4 5.1 13.9 7.9c13.9 8.8 29.3 13.4 45.3 16.5s32 5.7 47.9 8.6a127.6 127.6 0 0 1 15.1 3.6 53.2 53.2 0 0 1 10.5 4.4C900 712 914.2 716 928.5 720c11.7 3.3 23.3 6.7 35.1 9.6s24.9 3.8 37.4-2c0 6.2.1 12 0 17.9a1.5 1.5 0 0 1-.4 1.1c-3.4 4.6-4.1 10-3.4 15.5a31.2 31.2 0 0 0 2.5 8.4 95.7 95.7 0 0 0 4.5 9.8 32.3 32.3 0 0 0 3.7 5.4c2 2.4 4.1 4.7 6.2 7a4.5 4.5 0 0 0 1.4 1 51.9 51.9 0 0 0 23.1 2.5 57.4 57.4 0 0 0 11-1.8 26.5 26.5 0 0 0 8-3.7c2.5-1.7 2.2-3.8 1.2-6.6-2.1-5.3-6.2-8.9-9.8-12.9-1.4-1.6-4.3-2.1-6.7-2.6s-4.5-.2-6.8-.3-2.4-.7-2.3-2.5c.3-12.9.2-25.8.9-38.7.3-5 2.5-9.9 4-14.9.1-.5.8-1 1.3-1.4 9.1-6.8 18.4-13.3 27.3-20.4 6.4-5.1 12.9-10.3 18.4-16.3 7.9-8.6 15.7-17.4 20.4-28.2a35.7 35.7 0 0 0 2.9-13.6c.3-20 .1-40 0-60 0-8.4 1.2-16.5 5.1-24.1 2.3-4.3 3.9-9 6-14 4.1 4.8 9.2 6.4 14.9 6.9s7.6-1.2 8.5-5.9a48.7 48.7 0 0 0 .4-6.6c.1-8.1.1-16.2.4-24.3a4.5 4.5 0 0 1 2.1-3.6c6-2.9 12.3-5.6 18.5-8.2 2.5-1.1 5.2-1.8 7.9-2.7a19.3 19.3 0 0 1 8.3-.6c3.3.4 6.8-.6 10.1-1.1s9-1.9 13.5-2.6c12.1-1.8 22.9-6.2 29.5-17a49.4 49.4 0 0 1 9.3-11.5c5.4-4.8 5-7.6-1.1-11.5a19.2 19.2 0 0 0-5.4-2.6c-10-2.8-20-5.9-30.1-8.1-7.2-1.6-14.6-1.8-21.9-2.7s-14.4-4.7-18.7-12.1c-2.8-4.9-7.9-7.9-13.2-9.6s-12.8-3.2-19.2-4.7l-3-.6h117V797H512.2z"/><path fill="#fff" d="M1104.4 405.1c-10.3 1.3-19.8 5.4-29.5 8.7-3 1.1-6.4 2.9-8.1 5.3-3.6 5.1-6.1 10.9-5.3 17.5a3.5 3.5 0 0 1-.5 2.5c-11.2 11.9-19 26-26.3 40.5-4.3 8.7-8.7 17.4-13 26.2-1.3 2.7-2.2 5.7-3.7 8.3-4 7-10.1 11.7-16.9 15.5-11 6.1-22.9 9.6-35 12.6-16.9 4.3-34.3 6.7-50.9 12.4-5.8 2-11.9 1.6-18.1.9-13.3-1.5-26.7-2.5-40-3.4l-69.6-4.3c-15.4-.9-30.7.3-46.1 1.6s-31.6 3-47.4 4.2c-6.5.5-13-.1-19.5.5-13.1 1.3-25.1 6.2-37.1 11.4-2.6 1.1-5.2 2.5-7.8 3.4-15.7 5.7-26.5 17.1-35.8 30.3s-13.5 25.8-19.1 39.3c-4.6 11.4-9.2 22.9-14.8 33.8a83.5 83.5 0 0 1-24 28.2c-4.9 3.8-9.9 7.5-14.5 11.7s-6.2 6.8-9.2 10.3V405.1z"/><path fill="#f2ba4e" d="M2350.1 405.1h25.8l3.1.6c6.4 1.5 12.9 2.6 19.1 4.7s10.4 4.7 13.3 9.6c4.2 7.4 10.5 11.1 18.6 12.1s14.8 1.1 21.9 2.7c10.2 2.2 20.1 5.3 30.1 8.1a19.8 19.8 0 0 1 5.5 2.6c6.1 3.9 6.5 6.7 1.1 11.5-3.9 3.3-6.6 7.2-9.3 11.5-6.7 10.8-17.4 15.2-29.6 17-4.5.7-8.9 1.8-13.4 2.6s-6.8 1.5-10.1 1.1a19.2 19.2 0 0 0-8.3.6c-2.7.9-5.4 1.6-7.9 2.7-6.3 2.6-12.5 5.3-18.6 8.2a5.1 5.1 0 0 0-2.1 3.6c-.2 8.1-.2 16.2-.3 24.3a36.7 36.7 0 0 1-.5 6.6c-.8 4.7-3.6 6.4-8.4 5.9s-10.8-2.1-14.9-6.9c-2.1 5-3.7 9.7-6 14-3.9 7.6-5.2 15.7-5.1 24.1.1 20 .3 40 0 60a35.7 35.7 0 0 1-2.9 13.6c-4.7 10.8-12.5 19.6-20.4 28.2-5.5 6-12 11.2-18.4 16.3-9 7.1-18.2 13.6-27.3 20.4a4.7 4.7 0 0 0-1.4 1.4c-1.4 5-3.6 9.9-3.9 14.9-.8 12.9-.6 25.8-1 38.7 0 1.8.9 2.4 2.4 2.5s4.6-.2 6.8.3 5.3 1 6.7 2.6c3.6 4 7.7 7.6 9.7 12.9 1.1 2.8 1.4 4.9-1.1 6.6a26.5 26.5 0 0 1-8 3.7 58.7 58.7 0 0 1-11 1.8 52.3 52.3 0 0 1-23.2-2.5 4.1 4.1 0 0 1-1.3-1c-2.1-2.3-4.2-4.6-6.2-7a32.3 32.3 0 0 1-3.7-5.4c-1.7-3.2-3.2-6.5-4.6-9.8a35.1 35.1 0 0 1-2.4-8.4c-.7-5.5 0-10.9 3.4-15.5a2.1 2.1 0 0 0 .4-1.1v-17.9c-12.5 5.8-25 4.9-37.4 2s-23.5-6.3-35.1-9.6c-14.3-4-28.6-8-41.8-14.8a53.2 53.2 0 0 0-10.5-4.4 132.5 132.5 0 0 0-15.1-3.6c-16-2.9-32-5.5-47.9-8.6s-31.4-7.7-45.3-16.5c-4.5-2.8-9.4-5.1-14-7.9s-6.5-1.5-9.7.1a37.4 37.4 0 0 0-15.5 14.2c-6.9 12-17.1 19.9-29.4 25.4l-25.3 11.6c-6.2 2.7-8.8 6.6-7.1 14.7s5 19 7.8 28.4a4.8 4.8 0 0 0 3 2.9c12.2 3.1 19.3 10.9 21.7 23.2.4 2.1.1 3.4-1.7 3.7a48.5 48.5 0 0 1-9.3 1.3c-5.2 0-10.4-.4-15.6 1.3a10.1 10.1 0 0 1-6.2-.2 81.8 81.8 0 0 1-10.9-4.8 6.5 6.5 0 0 1-2.9-3.6c-2.1-7-3.9-14-5.7-21s-4.8-15-10.5-20.7-9.5-13.8-10.9-22.3a10.6 10.6 0 0 1 .4-4.7c2.1-6 4.5-12 6.7-18 3.4-9.5 4.5-19.3.4-28.6a131.1 131.1 0 0 1-11.1-43.4c-.5-6.6-2.3-13.2-.4-19.9.8-2.7 1.9-5.3 2.9-8.4l-2.3 1.6c-10.1 7.9-16.6 18.3-20.6 30.4-9.5 29.3-24.7 55.3-46.9 76.8-11.8 11.4-25.4 19.6-42.6 19.4v-1.1c3-3.5 5.8-7.3 9.2-10.3s9.6-7.9 14.5-11.7a83.5 83.5 0 0 0 24-28.2c5.6-10.9 10.1-22.4 14.8-33.8 5.5-13.5 10.7-27.2 19.1-39.3s20-24.6 35.7-30.3c2.7-.9 5.3-2.3 7.9-3.4 11.9-5.2 24-10.1 37.1-11.4 6.5-.6 13 0 19.5-.5 15.8-1.2 31.6-2.8 47.4-4.2s30.7-2.5 46.1-1.6l69.5 4.3c13.4.9 26.8 1.9 40 3.4 6.2.7 12.4 1.1 18.2-.9 16.6-5.7 34-8.1 50.9-12.4 12.1-3 24-6.5 34.9-12.6 6.9-3.8 13-8.5 17-15.5 1.5-2.6 2.4-5.6 3.7-8.3 4.3-8.8 8.7-17.5 13-26.2 7.3-14.5 15.1-28.6 26.3-40.5a3.5 3.5 0 0 0 .5-2.5c-.8-6.6 1.7-12.4 5.3-17.5 1.7-2.4 5.1-4.2 8.1-5.3 9.7-3.3 19.2-7.4 29.5-8.7z"/><path fill="#fff" d="M1757.9 723.6c17.2.2 30.8-8 42.6-19.4 22.2-21.5 37.4-47.5 46.9-76.8 4-12.1 10.5-22.5 20.6-30.4l2.3-1.6c-1 3.1-2.1 5.7-2.9 8.4-1.9 6.7-.1 13.3.4 19.9a131.1 131.1 0 0 0 11.1 43.4c4.1 9.3 3 19.1-.4 28.6-2.2 6-4.6 12-6.7 18a10.6 10.6 0 0 0-.4 4.7c1.4 8.5 4.6 16.1 10.9 22.3s8.5 13 10.5 20.7 3.6 14 5.7 21a6.5 6.5 0 0 0 2.9 3.6 81.8 81.8 0 0 0 10.9 4.8 10.1 10.1 0 0 0 6.2.2c5.2-1.7 10.4-1.3 15.6-1.3a48.5 48.5 0 0 0 9.3-1.3c1.8-.3 2.1-1.6 1.7-3.7-2.4-12.3-9.5-20.1-21.7-23.2a4.8 4.8 0 0 1-3-2.9c-2.8-9.4-5.8-18.8-7.8-28.4s.9-12 7.1-14.7l25.3-11.6c12.3-5.5 22.5-13.4 29.4-25.4a37.4 37.4 0 0 1 15.5-14.2c3.2-1.6 6.3-2.2 9.7-.1s9.5 5.1 14 7.9c13.9 8.8 29.3 13.4 45.3 16.5s31.9 5.7 47.9 8.6a132.5 132.5 0 0 1 15.1 3.6 53.2 53.2 0 0 1 10.5 4.4c13.2 6.8 27.5 10.8 41.8 14.8 11.6 3.3 23.3 6.7 35.1 9.6s24.9 3.8 37.4-2v17.9a2.1 2.1 0 0 1-.4 1.1c-3.4 4.6-4.1 10-3.4 15.5a35.1 35.1 0 0 0 2.4 8.4c1.4 3.3 2.9 6.6 4.6 9.8a32.3 32.3 0 0 0 3.7 5.4c2 2.4 4.1 4.7 6.2 7a4.1 4.1 0 0 0 1.3 1 52.3 52.3 0 0 0 23.2 2.5 58.7 58.7 0 0 0 11-1.8 26.5 26.5 0 0 0 8-3.7c2.5-1.7 2.2-3.8 1.1-6.6-2-5.3-6.1-8.9-9.7-12.9-1.4-1.6-4.3-2.1-6.7-2.6s-4.5-.2-6.8-.3-2.4-.7-2.4-2.5c.4-12.9.2-25.8 1-38.7.3-5 2.5-9.9 3.9-14.9a4.7 4.7 0 0 1 1.4-1.4c9.1-6.8 18.3-13.3 27.3-20.4 6.4-5.1 12.9-10.3 18.4-16.3 7.9-8.6 15.7-17.4 20.4-28.2a35.7 35.7 0 0 0 2.9-13.6c.3-20 .1-40 0-60-.1-8.4 1.2-16.5 5.1-24.1 2.3-4.3 3.9-9 6-14 4.1 4.8 9.2 6.4 14.9 6.9s7.6-1.2 8.4-5.9a36.7 36.7 0 0 0 .5-6.6c.1-8.1.1-16.2.3-24.3a5.1 5.1 0 0 1 2.1-3.6c6.1-2.9 12.3-5.6 18.6-8.2 2.5-1.1 5.2-1.8 7.9-2.7a19.2 19.2 0 0 1 8.3-.6c3.3.4 6.8-.6 10.1-1.1s8.9-1.9 13.4-2.6c12.2-1.8 22.9-6.2 29.6-17 2.7-4.3 5.4-8.2 9.3-11.5 5.4-4.8 5-7.6-1.1-11.5a19.8 19.8 0 0 0-5.5-2.6c-10-2.8-19.9-5.9-30.1-8.1-7.1-1.6-14.6-1.8-21.9-2.7s-14.4-4.7-18.6-12.1c-2.9-4.9-8-7.9-13.3-9.6s-12.7-3.2-19.1-4.7l-3.1-.6H2493V797h-735.1z"/><path fill="#fff" d="M2350.1 405.1c-10.3 1.3-19.8 5.4-29.5 8.7-3 1.1-6.4 2.9-8.1 5.3-3.6 5.1-6.1 10.9-5.3 17.5a3.5 3.5 0 0 1-.5 2.5c-11.2 11.9-19 26-26.3 40.5-4.3 8.7-8.7 17.4-13 26.2-1.3 2.7-2.2 5.7-3.7 8.3-4 7-10.1 11.7-17 15.5-10.9 6.1-22.8 9.6-34.9 12.6-16.9 4.3-34.3 6.7-50.9 12.4-5.8 2-12 1.6-18.2.9-13.2-1.5-26.6-2.5-40-3.4l-69.5-4.3c-15.4-.9-30.8.3-46.1 1.6s-31.6 3-47.4 4.2c-6.5.5-13-.1-19.5.5-13.1 1.3-25.2 6.2-37.1 11.4-2.6 1.1-5.2 2.5-7.9 3.4-15.7 5.7-26.4 17.1-35.7 30.3s-13.6 25.8-19.1 39.3c-4.7 11.4-9.2 22.9-14.8 33.8a83.5 83.5 0 0 1-24 28.2c-4.9 3.8-9.9 7.5-14.5 11.7s-6.2 6.8-9.2 10.3V405.1z"/><path fill="#f3e54c" d="M144.6 15.6h-25.8c-1 .2-2.1.3-3.1.6-6.4 1.5-12.9 2.6-19.1 4.6s-10.4 4.7-13.2 9.6c-4.3 7.5-10.6 11.1-18.7 12.2s-14.8 1.1-21.9 2.7c-10.2 2.1-20.1 5.2-30.1 8.1A18 18 0 0 0 7.3 56C1.1 59.8.7 62.7 6.1 67.4A45.2 45.2 0 0 1 15.4 79C22.1 89.7 32.9 94.2 45 96c4.5.6 8.9 1.8 13.4 2.5s6.8 1.6 10.1 1.1a18.3 18.3 0 0 1 8.4.7c2.6.9 5.3 1.6 7.8 2.6 6.3 2.7 12.5 5.4 18.6 8.3a5.1 5.1 0 0 1 2.1 3.5c.2 8.1.2 16.3.3 24.4a46.2 46.2 0 0 0 .5 6.5c.8 4.8 3.6 6.4 8.4 6s10.8-2.2 14.9-6.9c2.1 4.9 3.7 9.6 6 14 4 7.6 5.2 15.7 5.1 24.1-.1 20-.3 40 0 60a37.2 37.2 0 0 0 2.9 13.5c4.7 10.9 12.5 19.7 20.4 28.3a159.8 159.8 0 0 0 18.5 16.3c8.9 7 18.1 13.6 27.2 20.4a3.2 3.2 0 0 1 1.4 1.4c1.4 4.9 3.6 9.8 3.9 14.9.8 12.8.6 25.8 1 38.6 0 1.9-.9 2.4-2.3 2.5s-4.7-.1-6.9.3-5.3 1-6.7 2.6c-3.6 4-7.7 7.7-9.7 13-1.1 2.8-1.4 4.9 1.2 6.6a28.5 28.5 0 0 0 7.9 3.7 68.2 68.2 0 0 0 11 1.8 52.2 52.2 0 0 0 23.2-2.5 4.1 4.1 0 0 0 1.3-1c2.1-2.3 4.3-4.6 6.2-7.1a28.7 28.7 0 0 0 3.7-5.4 86 86 0 0 0 4.6-9.7 42.5 42.5 0 0 0 2.5-8.4c.6-5.5-.1-10.9-3.5-15.6a2.1 2.1 0 0 1-.4-1v-17.9c12.5 5.8 25 4.9 37.4 1.9s23.5-6.3 35.2-9.5c14.2-4 28.5-8 41.7-14.8a60.4 60.4 0 0 1 10.5-4.5 132 132 0 0 1 15.1-3.5c16-3 32-5.6 48-8.6s31.3-7.8 45.2-16.5c4.5-2.9 9.4-5.1 14-7.9s6.5-1.6 9.7.1a37.4 37.4 0 0 1 15.5 14.2c7 11.9 17.1 19.8 29.4 25.4 8.5 3.7 16.8 7.8 25.3 11.5 6.2 2.8 8.9 6.7 7.1 14.7-2 9.6-5 19.1-7.7 28.5a5 5 0 0 1-3 2.9c-12.3 3.1-19.3 10.9-21.8 23.2-.4 2.1-.1 3.3 1.7 3.7a49.6 49.6 0 0 0 9.3 1.3c5.2 0 10.5-.4 15.6 1.3a10.9 10.9 0 0 0 6.2-.2 71.2 71.2 0 0 0 10.9-4.9 6.9 6.9 0 0 0 3-3.5c2-7 3.8-14 5.6-21s4.8-15.1 10.6-20.7 9.4-13.8 10.8-22.3a10.6 10.6 0 0 0-.4-4.7c-2.1-6.1-4.5-12-6.7-18-3.4-9.5-4.5-19.3-.4-28.6a131.2 131.2 0 0 0 11.2-43.4c.5-6.6 2.2-13.3.3-19.9-.8-2.7-1.8-5.4-2.9-8.4l2.3 1.5c10.1 8 16.7 18.4 20.6 30.5 9.5 29.3 24.7 55.2 46.9 76.8 11.8 11.4 25.4 19.6 42.7 19.4v-1.2c-3.1-3.4-5.9-7.2-9.3-10.3s-9.6-7.8-14.5-11.6a83.5 83.5 0 0 1-24-28.2c-5.6-10.9-10.1-22.4-14.8-33.8-5.5-13.5-10.7-27.3-19.1-39.4s-20-24.6-35.7-30.2c-2.7-1-5.2-2.3-7.9-3.5-11.9-5.2-24-10-37.1-11.3-6.4-.6-13 0-19.5-.5-15.8-1.3-31.6-2.8-47.4-4.2s-30.7-2.5-46.1-1.6l-69.5 4.3c-13.4.9-26.7 1.9-40 3.4-6.2.6-12.3 1-18.2-1-16.6-5.7-34-8-50.9-12.3-12.1-3-24-6.5-34.9-12.6-6.9-3.9-13-8.6-17-15.5-1.5-2.6-2.4-5.6-3.7-8.3-4.3-8.8-8.7-17.5-13-26.2-7.2-14.5-15.1-28.6-26.3-40.5a3.6 3.6 0 0 1-.5-2.5c.9-6.7-1.7-12.4-5.3-17.5-1.7-2.5-5.1-4.3-8-5.3-9.8-3.3-19.3-7.4-29.6-8.7z"/><path fill="#fff" d="M736.9 334.1c-17.3.2-30.9-8-42.7-19.4-22.2-21.6-37.4-47.5-46.9-76.8-3.9-12.1-10.5-22.5-20.6-30.5l-2.3-1.5c1.1 3 2.1 5.7 2.9 8.4 1.9 6.6.2 13.3-.3 19.9a131.2 131.2 0 0 1-11.2 43.4c-4.1 9.3-3 19.1.4 28.6 2.2 6 4.6 11.9 6.7 18a10.6 10.6 0 0 1 .4 4.7c-1.4 8.5-4.6 16-10.8 22.3s-8.6 13-10.6 20.7-3.6 14-5.6 21a6.9 6.9 0 0 1-3 3.5 71.2 71.2 0 0 1-10.9 4.9 10.9 10.9 0 0 1-6.2.2c-5.1-1.7-10.4-1.3-15.6-1.3a49.6 49.6 0 0 1-9.3-1.3c-1.8-.4-2.1-1.6-1.7-3.7 2.5-12.3 9.5-20.1 21.8-23.2a5 5 0 0 0 3-2.9c2.7-9.4 5.7-18.9 7.7-28.5 1.8-8-.9-11.9-7.1-14.7-8.5-3.7-16.8-7.8-25.3-11.5-12.3-5.6-22.4-13.5-29.4-25.4a37.4 37.4 0 0 0-15.5-14.2c-3.2-1.7-6.3-2.2-9.7-.1s-9.5 5-14 7.9c-13.9 8.7-29.3 13.4-45.2 16.5s-32 5.6-48 8.6a132 132 0 0 0-15.1 3.5 60.4 60.4 0 0 0-10.5 4.5c-13.2 6.8-27.5 10.8-41.7 14.8-11.7 3.2-23.4 6.7-35.2 9.5s-24.9 3.9-37.4-1.9V356a2.1 2.1 0 0 0 .4 1c3.4 4.7 4.1 10.1 3.5 15.6a42.5 42.5 0 0 1-2.5 8.4 86 86 0 0 1-4.6 9.7 28.7 28.7 0 0 1-3.7 5.4c-1.9 2.5-4.1 4.8-6.2 7.1a4.1 4.1 0 0 1-1.3 1 52.2 52.2 0 0 1-23.2 2.5 68.2 68.2 0 0 1-11-1.8 28.5 28.5 0 0 1-7.9-3.7c-2.6-1.7-2.3-3.8-1.2-6.6 2-5.3 6.1-9 9.7-13 1.4-1.6 4.3-2.1 6.7-2.6s4.6-.1 6.9-.3 2.3-.6 2.3-2.5c-.4-12.8-.2-25.8-1-38.6-.3-5.1-2.5-10-3.9-14.9a3.2 3.2 0 0 0-1.4-1.4c-9.1-6.8-18.3-13.4-27.2-20.4a159.8 159.8 0 0 1-18.5-16.3c-7.9-8.6-15.7-17.4-20.4-28.3a37.2 37.2 0 0 1-2.9-13.5c-.3-20-.1-40 0-60 .1-8.4-1.1-16.5-5.1-24.1-2.3-4.4-3.9-9.1-6-14-4.1 4.7-9.2 6.4-14.9 6.9s-7.6-1.2-8.4-6a46.2 46.2 0 0 1-.5-6.5c-.1-8.1-.1-16.3-.3-24.4a5.1 5.1 0 0 0-2.1-3.5c-6.1-2.9-12.3-5.6-18.6-8.3-2.5-1-5.2-1.7-7.8-2.6a18.3 18.3 0 0 0-8.4-.7c-3.3.5-6.8-.5-10.1-1.1S49.5 96.6 45 96c-12.1-1.8-22.9-6.3-29.6-17a45.2 45.2 0 0 0-9.3-11.6c-5.4-4.7-5-7.6 1.2-11.4a18 18 0 0 1 5.4-2.6c10-2.9 19.9-6 30.1-8.1 7.1-1.6 14.6-1.8 21.9-2.7s14.4-4.7 18.7-12.2c2.8-4.9 7.9-7.8 13.2-9.6s12.7-3.1 19.1-4.6c1-.3 2.1-.4 3.1-.6H1.7v391.9h735.2z"/><path fill="#fff" d="M144.6 15.6c10.3 1.3 19.8 5.4 29.6 8.7 2.9 1 6.3 2.8 8 5.3 3.6 5.1 6.2 10.8 5.3 17.5a3.6 3.6 0 0 0 .5 2.5c11.2 11.9 19.1 26 26.3 40.5 4.3 8.7 8.7 17.4 13 26.2 1.3 2.7 2.2 5.7 3.7 8.3 4 6.9 10.1 11.6 17 15.5 10.9 6.1 22.8 9.6 34.9 12.6 16.9 4.3 34.3 6.6 50.9 12.3 5.9 2 12 1.6 18.2 1 13.3-1.5 26.6-2.5 40-3.4l69.5-4.3c15.4-.9 30.8.3 46.1 1.6s31.6 2.9 47.4 4.2c6.5.5 13.1-.1 19.5.5 13.1 1.3 25.2 6.1 37.1 11.3 2.7 1.2 5.2 2.5 7.9 3.5 15.7 5.6 26.5 17.1 35.7 30.2s13.6 25.9 19.1 39.4c4.7 11.4 9.2 22.9 14.8 33.8a83.5 83.5 0 0 0 24 28.2c4.9 3.8 9.9 7.5 14.5 11.6s6.2 6.9 9.3 10.3V15.6z"/><path fill="#f3794a" d="M1384.2 11.5h-25.8l-3 .6c-6.4 1.5-13 2.7-19.2 4.7s-10.4 4.7-13.2 9.6c-4.3 7.4-10.6 11.1-18.7 12.1s-14.7 1.2-21.9 2.7c-10.1 2.2-20.1 5.3-30.1 8.1a26.9 26.9 0 0 0-5.4 2.6c-6.1 3.9-6.6 6.7-1.1 11.5a49.9 49.9 0 0 1 9.3 11.6c6.6 10.7 17.4 15.1 29.5 16.9 4.5.7 8.9 1.9 13.4 2.6s6.9 1.5 10.1 1.1a18.2 18.2 0 0 1 8.4.7 81 81 0 0 1 7.9 2.6c6.2 2.6 12.4 5.3 18.5 8.3a4.5 4.5 0 0 1 2.1 3.5c.3 8.1.2 16.2.4 24.3a36 36 0 0 0 .4 6.6c.9 4.7 3.6 6.4 8.4 6s10.9-2.2 15-7c2 5 3.7 9.7 5.9 14.1 4 7.6 5.2 15.6 5.1 24.1-.1 20-.2 40 0 59.9a37.4 37.4 0 0 0 3 13.6c4.7 10.8 12.5 19.7 20.4 28.2 5.5 6 12 11.3 18.4 16.4 8.9 7 18.2 13.6 27.3 20.4.5.3 1.2.8 1.3 1.3 1.4 5 3.6 9.9 3.9 14.9.8 12.9.7 25.8 1 38.7.1 1.8-.8 2.4-2.3 2.5a52.3 52.3 0 0 0-6.9.3c-2.3.5-5.2 1-6.7 2.6-3.5 4-7.7 7.7-9.7 13-1 2.7-1.3 4.8 1.2 6.5a26.2 26.2 0 0 0 7.9 3.8 81.4 81.4 0 0 0 11 1.8 53.7 53.7 0 0 0 23.2-2.6 2.4 2.4 0 0 0 1.3-.9c2.1-2.4 4.3-4.7 6.3-7.1a39.7 39.7 0 0 0 3.7-5.4c1.6-3.2 3.2-6.4 4.5-9.8a31.7 31.7 0 0 0 2.5-8.3c.7-5.5 0-10.9-3.5-15.6a2.1 2.1 0 0 1-.4-1.1V334c12.5 5.8 25.1 5 37.5 2s23.4-6.3 35.1-9.6c14.2-4 28.5-7.9 41.8-14.8a64.7 64.7 0 0 1 10.5-4.4c4.9-1.5 10-2.6 15-3.6 16-2.9 32-5.5 48-8.6s31.3-7.7 45.3-16.5c4.5-2.8 9.4-5 13.9-7.8s6.5-1.6 9.8.1a37 37 0 0 1 15.4 14.2c7 11.9 17.1 19.8 29.5 25.3l25.2 11.6c6.2 2.7 8.9 6.6 7.2 14.7s-5 19-7.8 28.5a5.3 5.3 0 0 1-3 2.9c-12.3 3.1-19.3 10.8-21.8 23.2-.4 2-.1 3.3 1.8 3.7a47.3 47.3 0 0 0 9.2 1.2c5.3.1 10.5-.4 15.7 1.3a10.6 10.6 0 0 0 6.1-.1 72.3 72.3 0 0 0 11-4.9 6.9 6.9 0 0 0 2.9-3.6q3-10.4 5.7-21c1.9-7.7 4.8-15 10.5-20.7s9.5-13.7 10.8-22.3a10.8 10.8 0 0 0-.4-4.7c-2.1-6-4.5-11.9-6.6-18-3.4-9.4-4.5-19.3-.4-28.6a130.5 130.5 0 0 0 11.1-43.3c.5-6.6 2.2-13.3.3-20-.7-2.7-1.8-5.3-2.9-8.3a18.5 18.5 0 0 1 2.3 1.5c10.1 8 16.7 18.4 20.6 30.4 9.6 29.4 24.7 55.3 46.9 76.8 11.8 11.5 25.4 19.7 42.7 19.5v-1.2c-3.1-3.5-5.8-7.2-9.2-10.3s-9.6-7.8-14.6-11.6c-9.9-7.8-18.2-17.1-23.9-28.2s-10.2-22.5-14.9-33.8c-5.5-13.6-10.6-27.3-19.1-39.4s-20-24.6-35.7-30.2c-2.7-1-5.2-2.4-7.8-3.5-12-5.2-24.1-10.1-37.2-11.3-6.4-.6-13-.1-19.4-.6-15.8-1.2-31.6-2.7-47.4-4.1s-30.7-2.6-46.1-1.6c-23.2 1.4-46.4 2.7-69.6 4.3-13.3.9-26.7 1.9-40 3.3-6.2.7-12.3 1.1-18.1-.9-16.7-5.7-34-8-51-12.3-12-3.1-23.9-6.6-34.9-12.7-6.8-3.8-13-8.5-16.9-15.4-1.5-2.7-2.4-5.6-3.8-8.4l-13-26.2c-7.2-14.4-15.1-28.5-26.3-40.5a3.5 3.5 0 0 1-.5-2.5c.9-6.6-1.7-12.3-5.2-17.4-1.7-2.5-5.1-4.3-8.1-5.3-9.7-3.4-19.3-7.5-29.6-8.8z"/><path fill="#fff" d="M1976.5 330.1c-17.3.2-30.9-8-42.7-19.5-22.2-21.5-37.3-47.4-46.9-76.8-3.9-12-10.5-22.4-20.6-30.4a18.5 18.5 0 0 0-2.3-1.5c1.1 3 2.2 5.6 2.9 8.3 1.9 6.7.2 13.4-.3 20a130.5 130.5 0 0 1-11.1 43.3c-4.1 9.3-3 19.2.4 28.6 2.1 6.1 4.5 12 6.6 18a10.8 10.8 0 0 1 .4 4.7c-1.3 8.6-4.5 16.1-10.8 22.3s-8.6 13-10.5 20.7-3.7 14.1-5.7 21a6.9 6.9 0 0 1-2.9 3.6 72.3 72.3 0 0 1-11 4.9 10.6 10.6 0 0 1-6.1.1c-5.2-1.7-10.4-1.2-15.7-1.3a47.3 47.3 0 0 1-9.2-1.2c-1.9-.4-2.2-1.7-1.8-3.7 2.5-12.4 9.5-20.1 21.8-23.2a5.3 5.3 0 0 0 3-2.9c2.8-9.5 5.7-18.9 7.8-28.5s-1-12-7.2-14.7l-25.2-11.6c-12.4-5.5-22.5-13.4-29.5-25.3a37 37 0 0 0-15.4-14.2c-3.3-1.7-6.4-2.2-9.8-.1s-9.4 5-13.9 7.8c-14 8.8-29.4 13.5-45.3 16.5s-32 5.7-48 8.6c-5 1-10.1 2.1-15 3.6a64.7 64.7 0 0 0-10.5 4.4c-13.3 6.9-27.6 10.8-41.8 14.8-11.7 3.3-23.3 6.8-35.1 9.6s-25 3.8-37.5-2v17.9a2.1 2.1 0 0 0 .4 1.1c3.5 4.7 4.2 10.1 3.5 15.6a31.7 31.7 0 0 1-2.5 8.3c-1.3 3.4-2.9 6.6-4.5 9.8a39.7 39.7 0 0 1-3.7 5.4c-2 2.4-4.2 4.7-6.3 7.1a2.4 2.4 0 0 1-1.3.9 53.7 53.7 0 0 1-23.2 2.6 81.4 81.4 0 0 1-11-1.8 26.2 26.2 0 0 1-7.9-3.8c-2.5-1.7-2.2-3.8-1.2-6.5 2-5.3 6.2-9 9.7-13 1.5-1.6 4.4-2.1 6.7-2.6a52.3 52.3 0 0 1 6.9-.3c1.5-.1 2.4-.7 2.3-2.5-.3-12.9-.2-25.8-1-38.7-.3-5-2.5-9.9-3.9-14.9-.1-.5-.8-1-1.3-1.3-9.1-6.8-18.4-13.4-27.3-20.4-6.4-5.1-12.9-10.4-18.4-16.4-7.9-8.5-15.7-17.4-20.4-28.2a37.4 37.4 0 0 1-3-13.6c-.2-19.9-.1-39.9 0-59.9.1-8.5-1.1-16.5-5.1-24.1-2.2-4.4-3.9-9.1-5.9-14.1-4.1 4.8-9.2 6.5-15 7s-7.5-1.3-8.4-6a36 36 0 0 1-.4-6.6c-.2-8.1-.1-16.2-.4-24.3a4.5 4.5 0 0 0-2.1-3.5c-6.1-3-12.3-5.7-18.5-8.3a81 81 0 0 0-7.9-2.6 18.2 18.2 0 0 0-8.4-.7c-3.2.4-6.7-.5-10.1-1.1s-8.9-1.9-13.4-2.6c-12.1-1.8-22.9-6.2-29.5-16.9a49.9 49.9 0 0 0-9.3-11.6c-5.5-4.8-5-7.6 1.1-11.5a26.9 26.9 0 0 1 5.4-2.6c10-2.8 20-5.9 30.1-8.1 7.2-1.5 14.6-1.7 21.9-2.7s14.4-4.7 18.7-12.1c2.8-4.9 7.9-7.9 13.2-9.6s12.8-3.2 19.2-4.7l3-.6h-117.1v392h735.2z"/><path fill="#fff" d="M1384.2 11.5c10.3 1.3 19.9 5.4 29.6 8.8 3 1 6.4 2.8 8.1 5.3 3.5 5.1 6.1 10.8 5.2 17.4a3.5 3.5 0 0 0 .5 2.5c11.2 12 19.1 26.1 26.3 40.5l13 26.2c1.4 2.8 2.3 5.7 3.8 8.4 3.9 6.9 10.1 11.6 16.9 15.4 11 6.1 22.9 9.6 34.9 12.7 17 4.3 34.3 6.6 51 12.3 5.8 2 11.9 1.6 18.1.9 13.3-1.4 26.7-2.4 40-3.3 23.2-1.6 46.4-2.9 69.6-4.3 15.4-1 30.7.2 46.1 1.6s31.6 2.9 47.4 4.1c6.4.5 13 0 19.4.6 13.1 1.2 25.2 6.1 37.2 11.3 2.6 1.1 5.1 2.5 7.8 3.5 15.7 5.6 26.5 17 35.7 30.2s13.6 25.8 19.1 39.4c4.7 11.3 9.3 22.8 14.9 33.8s14 20.4 23.9 28.2c5 3.8 10 7.4 14.6 11.6s6.1 6.8 9.2 10.3V11.5z"/></svg>