<svg xmlns="http://www.w3.org/2000/svg" width="4341" height="1368.7" viewBox="0 0 4341 1368.7"><path fill="#629ac1" d="M1921.5 685.8h45l5.3 1c11.1 2.6 22.5 4.6 33.3 8.1s18.1 8.2 23.1 16.8c7.4 12.9 18.4 19.3 32.5 21.1s25.7 2 38.2 4.7c17.7 3.8 35 9.2 52.4 14.1a43.4 43.4 0 0 1 9.5 4.5c10.6 6.8 11.4 11.7 1.9 20-6.7 5.9-11.5 12.6-16.2 20.1-11.6 18.8-30.4 26.5-51.5 29.7-7.8 1.1-15.5 3.1-23.3 4.4-5.9 1-11.9 2.7-17.6 1.9a34 34 0 0 0-14.6 1.2c-4.6 1.5-9.3 2.7-13.7 4.6-10.9 4.6-21.7 9.3-32.4 14.4-1.8.9-3.5 4-3.6 6.1-.5 14.2-.4 28.3-.6 42.5a86.2 86.2 0 0 1-.8 11.4c-1.5 8.3-6.3 11.2-14.7 10.4-10-.9-18.9-3.8-26-12.1-3.6 8.6-6.4 16.8-10.4 24.4-6.9 13.3-9 27.4-8.9 42.1.2 34.8.5 69.6 0 104.4a62.2 62.2 0 0 1-5.1 23.7c-8.2 18.8-21.8 34.2-35.5 49.1-9.7 10.5-20.9 19.7-32.2 28.5-15.5 12.3-31.6 23.7-47.5 35.5a6.1 6.1 0 0 0-2.3 2.5c-2.5 8.6-6.3 17.2-6.9 25.9-1.3 22.4-1.1 44.9-1.6 67.4-.1 3.2 1.4 4.2 4 4.3s8.1-.2 12 .6 9.1 1.7 11.6 4.5c6.2 7 13.4 13.4 16.9 22.6 1.9 4.8 2.4 8.5-2 11.4a45.9 45.9 0 0 1-13.8 6.5 126.1 126.1 0 0 1-19.2 3.2c-13.7 1.3-27.3.3-40.4-4.4a6.3 6.3 0 0 1-2.3-1.7c-3.7-4.1-7.4-8.1-10.9-12.3a74.2 74.2 0 0 1-6.4-9.4 188.3 188.3 0 0 1-7.9-17.1c-1.9-4.7-3.8-9.6-4.4-14.6-1.1-9.6.1-18.9 6.1-27.1a3.1 3.1 0 0 0 .7-1.8v-31.2c-21.8 10.1-43.6 8.6-65.3 3.4s-40.8-10.9-61.1-16.6c-24.9-7-49.7-13.9-72.9-25.9a108 108 0 0 0-18.2-7.7 264.2 264.2 0 0 0-26.3-6.2c-27.8-5.1-55.8-9.6-83.6-15s-54.6-13.4-78.8-28.7c-7.9-4.9-16.4-8.9-24.3-13.7-6-3.6-11.4-2.8-17 .1-11.3 5.8-20.7 14.1-26.9 24.8-12.2 20.8-29.8 34.6-51.4 44.2-14.7 6.5-29.3 13.6-44 20.1-10.8 4.8-15.4 11.6-12.4 25.7 3.6 16.7 8.7 33.1 13.5 49.5a8.7 8.7 0 0 0 5.2 5.1c21.4 5.4 33.7 19 37.9 40.4.7 3.6.2 5.8-2.9 6.5a88.9 88.9 0 0 1-16.2 2.2c-9.1.1-18.2-.7-27.2 2.2a18.1 18.1 0 0 1-10.8-.2 135.6 135.6 0 0 1-19.1-8.5 11.4 11.4 0 0 1-5-6.2c-3.6-12.1-6.8-24.4-9.9-36.6s-8.4-26.2-18.4-36.1-16.5-24-18.8-38.8a18.8 18.8 0 0 1 .6-8.2c3.7-10.5 7.9-20.9 11.7-31.4 5.9-16.5 7.8-33.6.7-49.8-10.7-24.3-17.5-49.2-19.4-75.6-.9-11.5-3.9-23.1-.6-34.7 1.3-4.7 3.2-9.3 5-14.6-1.6 1.1-2.9 1.8-4 2.7-17.5 13.9-29 32-35.8 53-16.7 51.1-43.1 96.3-81.8 133.8-20.5 20-44.2 34.3-74.3 33.9v-2c5.3-6.1 10.1-12.6 16.1-18 8-7.3 16.7-13.7 25.2-20.3 17.4-13.4 31.9-29.7 41.8-49.1s17.7-39.1 25.9-58.9c9.6-23.6 18.5-47.5 33.3-68.6 16.1-22.9 34.8-42.9 62.2-52.7 4.7-1.6 9.1-4 13.7-6 20.8-9.1 41.8-17.6 64.7-19.8 11.2-1 22.6 0 33.9-.9 27.5-2.1 55.1-4.8 82.6-7.2s53.5-4.5 80.3-2.9c40.4 2.5 80.8 4.9 121.2 7.6 23.3 1.5 46.6 3.3 69.7 5.8 10.8 1.2 21.5 1.9 31.6-1.6 29-9.9 59.3-14 88.8-21.5 21-5.3 41.7-11.4 60.8-22 12-6.7 22.6-14.9 29.5-27 2.7-4.5 4.2-9.7 6.6-14.5 7.4-15.2 15-30.4 22.6-45.6 12.6-25.3 26.3-49.8 45.8-70.6.9-.9 1.1-2.9.9-4.4-1.5-11.5 3-21.5 9.2-30.4 3-4.3 8.8-7.4 14.1-9.2 16.9-5.9 33.5-13 51.5-15.2z"/><path fill="#fff" d="M889.5 1240.8c30.1.4 53.8-13.9 74.3-33.9 38.7-37.5 65.1-82.7 81.8-133.8 6.8-21 18.3-39.1 35.8-53 1.1-.9 2.4-1.6 4-2.7-1.8 5.3-3.7 9.9-5 14.6-3.3 11.6-.3 23.2.6 34.7 1.9 26.4 8.7 51.3 19.4 75.6 7.1 16.2 5.2 33.3-.7 49.8-3.8 10.5-8 20.9-11.7 31.4a18.8 18.8 0 0 0-.6 8.2c2.3 14.8 7.9 28 18.8 38.8s14.9 22.7 18.4 36.1 6.3 24.5 9.9 36.6a11.4 11.4 0 0 0 5 6.2 135.6 135.6 0 0 0 19.1 8.5 18.1 18.1 0 0 0 10.8.2c9-2.9 18.1-2.1 27.2-2.2a88.9 88.9 0 0 0 16.2-2.2c3.1-.7 3.6-2.9 2.9-6.5-4.2-21.4-16.5-35-37.9-40.4a8.7 8.7 0 0 1-5.2-5.1c-4.8-16.4-9.9-32.8-13.5-49.5-3-14.1 1.6-20.9 12.4-25.7 14.7-6.5 29.3-13.6 44-20.1 21.6-9.6 39.2-23.4 51.4-44.2 6.2-10.7 15.6-19 26.9-24.8 5.6-2.9 11-3.7 17-.1 7.9 4.8 16.4 8.8 24.3 13.7 24.2 15.3 51.1 23.4 78.8 28.7s55.8 9.9 83.6 15a264.2 264.2 0 0 1 26.3 6.2 108 108 0 0 1 18.2 7.7c23.2 12 48 18.9 72.9 25.9 20.3 5.7 40.6 11.7 61.1 16.6s43.5 6.7 65.3-3.4v31.2a3.1 3.1 0 0 1-.7 1.8c-6 8.2-7.2 17.5-6.1 27.1.6 5 2.5 9.9 4.4 14.6a188.3 188.3 0 0 0 7.9 17.1 74.2 74.2 0 0 0 6.4 9.4c3.5 4.2 7.2 8.2 10.9 12.3a6.3 6.3 0 0 0 2.3 1.7c13.1 4.7 26.7 5.7 40.4 4.4a126.1 126.1 0 0 0 19.2-3.2 45.9 45.9 0 0 0 13.8-6.5c4.4-2.9 3.9-6.6 2-11.4-3.5-9.2-10.7-15.6-16.9-22.6-2.5-2.8-7.6-3.7-11.6-4.5s-8-.3-12-.6-4.1-1.1-4-4.3c.5-22.5.3-45 1.6-67.4.6-8.7 4.4-17.3 6.9-25.9a6.1 6.1 0 0 1 2.3-2.5c15.9-11.8 32-23.2 47.5-35.5 11.3-8.8 22.5-18 32.2-28.5 13.7-14.9 27.3-30.3 35.5-49.1a62.2 62.2 0 0 0 5.1-23.7c.5-34.8.2-69.6 0-104.4-.1-14.7 2-28.8 8.9-42.1 4-7.6 6.8-15.8 10.4-24.4 7.1 8.3 16 11.2 26 12.1 8.4.8 13.2-2.1 14.7-10.4a86.2 86.2 0 0 0 .8-11.4c.2-14.2.1-28.3.6-42.5.1-2.1 1.8-5.2 3.6-6.1 10.7-5.1 21.5-9.8 32.4-14.4 4.4-1.9 9.1-3.1 13.7-4.6a34 34 0 0 1 14.6-1.2c5.7.8 11.7-.9 17.6-1.9 7.8-1.3 15.5-3.3 23.3-4.4 21.1-3.2 39.9-10.9 51.5-29.7 4.7-7.5 9.5-14.2 16.2-20.1 9.5-8.3 8.7-13.2-1.9-20a43.4 43.4 0 0 0-9.5-4.5c-17.4-4.9-34.7-10.3-52.4-14.1-12.5-2.7-25.5-3-38.2-4.7s-25.1-8.2-32.5-21.1c-5-8.6-13.8-13.8-23.1-16.8s-22.2-5.5-33.3-8.1l-5.3-1h203.9v682.9H889.5z"/><path fill="#fff" d="M1921.5 685.8c-18 2.2-34.6 9.3-51.5 15.2-5.3 1.8-11.1 4.9-14.1 9.2-6.2 8.9-10.7 18.9-9.2 30.4.2 1.5 0 3.5-.9 4.4-19.5 20.8-33.2 45.3-45.8 70.6-7.6 15.2-15.2 30.4-22.6 45.6-2.4 4.8-3.9 10-6.6 14.5-6.9 12.1-17.5 20.3-29.5 27-19.1 10.6-39.8 16.7-60.8 22-29.5 7.5-59.8 11.6-88.8 21.5-10.1 3.5-20.8 2.8-31.6 1.6-23.1-2.5-46.4-4.3-69.7-5.8-40.4-2.7-80.8-5.1-121.2-7.6-26.8-1.6-53.6.5-80.3 2.9s-55.1 5.1-82.6 7.2c-11.3.9-22.7-.1-33.9.9-22.9 2.2-43.9 10.7-64.7 19.8-4.6 2-9 4.4-13.7 6-27.4 9.8-46.1 29.8-62.2 52.7-14.8 21.1-23.7 45-33.3 68.6-8.2 19.8-16.1 39.8-25.9 58.9s-24.4 35.7-41.8 49.1c-8.5 6.6-17.2 13-25.2 20.3-6 5.4-10.8 11.9-16.1 18v-553z"/><path fill="#f2ba4e" d="M4092 685.8h45l5.3 1c11.1 2.6 22.5 4.6 33.4 8.1 9.2 3 18.1 8.2 23 16.8 7.5 12.9 18.4 19.3 32.6 21.1s25.6 2 38.1 4.7c17.7 3.8 35 9.2 52.5 14.1a40.7 40.7 0 0 1 9.4 4.5c10.7 6.8 11.4 11.7 1.9 20-6.6 5.9-11.5 12.6-16.2 20.1-11.5 18.8-30.3 26.5-51.4 29.7-7.9 1.1-15.6 3.1-23.4 4.4-5.8 1-11.9 2.7-17.6 1.9a34 34 0 0 0-14.6 1.2c-4.6 1.5-9.3 2.7-13.7 4.6-10.9 4.6-21.7 9.3-32.3 14.4-1.9.9-3.6 4-3.7 6.1-.4 14.2-.4 28.3-.6 42.5a61.9 61.9 0 0 1-.8 11.4c-1.4 8.3-6.3 11.2-14.7 10.4s-18.8-3.8-26-12.1c-3.6 8.6-6.4 16.8-10.3 24.4-7 13.3-9.1 27.4-9 42.1.2 34.8.5 69.6.1 104.4a62.3 62.3 0 0 1-5.2 23.7c-8.1 18.8-21.8 34.2-35.5 49.1-9.6 10.5-20.9 19.7-32.1 28.5-15.5 12.3-31.7 23.7-47.6 35.5a6.1 6.1 0 0 0-2.3 2.5c-2.5 8.6-6.3 17.2-6.8 25.9-1.4 22.4-1.1 44.9-1.7 67.4-.1 3.2 1.4 4.2 4 4.3s8.1-.2 12 .6 9.2 1.7 11.6 4.5c6.3 7 13.4 13.4 17 22.6 1.8 4.8 2.3 8.5-2.1 11.4a43.7 43.7 0 0 1-13.8 6.5 122.1 122.1 0 0 1-19.2 3.2c-13.7 1.3-27.2.3-40.3-4.4a6.6 6.6 0 0 1-2.4-1.7c-3.6-4.1-7.4-8.1-10.8-12.3a65.7 65.7 0 0 1-6.5-9.4 188.3 188.3 0 0 1-7.9-17.1c-1.9-4.7-3.7-9.6-4.3-14.6-1.2-9.6 0-18.9 6-27.1a3.1 3.1 0 0 0 .7-1.8v-31.2c-21.8 10.1-43.6 8.6-65.2 3.4s-40.9-10.9-61.2-16.6c-24.8-7-49.7-13.9-72.8-25.9a112.6 112.6 0 0 0-18.3-7.7 257.8 257.8 0 0 0-26.3-6.2c-27.8-5.1-55.7-9.6-83.5-15s-54.6-13.4-78.9-28.7c-7.9-4.9-16.4-8.9-24.3-13.7-5.9-3.6-11.4-2.8-17 .1-11.3 5.8-20.7 14.1-26.9 24.8-12.2 20.8-29.8 34.6-51.3 44.2-14.8 6.5-29.3 13.6-44.1 20.1-10.7 4.8-15.4 11.6-12.4 25.7 3.6 16.7 8.7 33.1 13.6 49.5a8.5 8.5 0 0 0 5.2 5.1c21.3 5.4 33.6 19 37.9 40.4.7 3.6.2 5.8-3 6.5a88.9 88.9 0 0 1-16.2 2.2c-9.1.1-18.2-.7-27.2 2.2a18.1 18.1 0 0 1-10.8-.2 134.4 134.4 0 0 1-19-8.5 11.5 11.5 0 0 1-5.1-6.2c-3.6-12.1-6.8-24.4-9.9-36.6s-8.4-26.2-18.3-36.1-16.6-24-18.9-38.8a17.4 17.4 0 0 1 .7-8.2c3.7-10.5 7.8-20.9 11.6-31.4 5.9-16.5 7.8-33.6.7-49.8-10.7-24.3-17.4-49.2-19.4-75.6-.9-11.5-3.9-23.1-.6-34.7 1.4-4.7 3.2-9.3 5-14.6-1.6 1.1-2.8 1.8-3.9 2.7-17.6 13.9-29.1 32-35.9 53-16.6 51.1-43.1 96.3-81.7 133.8-20.6 20-44.3 34.3-74.4 33.9v-2c5.3-6.1 10.2-12.6 16.1-18 8-7.3 16.7-13.7 25.3-20.3 17.4-13.4 31.9-29.7 41.8-49.1s17.7-39.1 25.8-58.9c9.6-23.6 18.6-47.5 33.3-68.6 16.1-22.9 34.9-42.9 62.2-52.7 4.7-1.6 9.1-4 13.7-6 20.8-9.1 41.9-17.6 64.7-19.8 11.2-1 22.6 0 33.9-.9 27.6-2.1 55.1-4.8 82.6-7.2s53.5-4.5 80.4-2.9c40.4 2.5 80.8 4.9 121.2 7.6 23.2 1.5 46.5 3.3 69.7 5.8 10.7 1.2 21.4 1.9 31.6-1.6 28.9-9.9 59.2-14 88.7-21.5 21-5.3 41.8-11.4 60.9-22 11.9-6.7 22.5-14.9 29.5-27 2.6-4.5 4.1-9.7 6.5-14.5q11.3-22.8 22.7-45.6c12.6-25.3 26.2-49.8 45.7-70.6.9-.9 1.1-2.9.9-4.4-1.5-11.5 3-21.5 9.2-30.4 3-4.3 8.9-7.4 14.1-9.2 16.9-5.9 33.5-13 51.5-15.2z"/><path fill="#fff" d="M3060 1240.8c30.1.4 53.8-13.9 74.4-33.9 38.6-37.5 65.1-82.7 81.7-133.8 6.8-21 18.3-39.1 35.9-53 1.1-.9 2.3-1.6 3.9-2.7-1.8 5.3-3.6 9.9-5 14.6-3.3 11.6-.3 23.2.6 34.7 2 26.4 8.7 51.3 19.4 75.6 7.1 16.2 5.2 33.3-.7 49.8-3.8 10.5-7.9 20.9-11.6 31.4a17.4 17.4 0 0 0-.7 8.2c2.3 14.8 7.9 28 18.9 38.8s14.9 22.7 18.3 36.1 6.3 24.5 9.9 36.6a11.5 11.5 0 0 0 5.1 6.2 134.4 134.4 0 0 0 19 8.5 18.1 18.1 0 0 0 10.8.2c9-2.9 18.1-2.1 27.2-2.2a88.9 88.9 0 0 0 16.2-2.2c3.2-.7 3.7-2.9 3-6.5-4.3-21.4-16.6-35-37.9-40.4a8.5 8.5 0 0 1-5.2-5.1c-4.9-16.4-10-32.8-13.6-49.5-3-14.1 1.7-20.9 12.4-25.7 14.8-6.5 29.3-13.6 44.1-20.1 21.5-9.6 39.1-23.4 51.3-44.2 6.2-10.7 15.6-19 26.9-24.8 5.6-2.9 11.1-3.7 17-.1 7.9 4.8 16.4 8.8 24.3 13.7 24.3 15.3 51.1 23.4 78.9 28.7s55.7 9.9 83.5 15a257.8 257.8 0 0 1 26.3 6.2 112.6 112.6 0 0 1 18.3 7.7c23.1 12 48 18.9 72.8 25.9 20.3 5.7 40.6 11.7 61.2 16.6s43.4 6.7 65.2-3.4v31.2a3.1 3.1 0 0 1-.7 1.8c-6 8.2-7.2 17.5-6 27.1.6 5 2.4 9.9 4.3 14.6a188.3 188.3 0 0 0 7.9 17.1 65.7 65.7 0 0 0 6.5 9.4c3.4 4.2 7.2 8.2 10.8 12.3a6.6 6.6 0 0 0 2.4 1.7c13.1 4.7 26.6 5.7 40.3 4.4a122.1 122.1 0 0 0 19.2-3.2 43.7 43.7 0 0 0 13.8-6.5c4.4-2.9 3.9-6.6 2.1-11.4-3.6-9.2-10.7-15.6-17-22.6-2.4-2.8-7.5-3.7-11.6-4.5s-8-.3-12-.6-4.1-1.1-4-4.3c.6-22.5.3-45 1.7-67.4.5-8.7 4.3-17.3 6.8-25.9a6.1 6.1 0 0 1 2.3-2.5c15.9-11.8 32.1-23.2 47.6-35.5 11.2-8.8 22.5-18 32.1-28.5 13.7-14.9 27.4-30.3 35.5-49.1a62.3 62.3 0 0 0 5.2-23.7c.4-34.8.1-69.6-.1-104.4-.1-14.7 2-28.8 9-42.1 3.9-7.6 6.7-15.8 10.3-24.4 7.2 8.3 16.1 11.2 26 12.1s13.3-2.1 14.7-10.4a61.9 61.9 0 0 0 .8-11.4c.2-14.2.2-28.3.6-42.5.1-2.1 1.8-5.2 3.7-6.1 10.6-5.1 21.4-9.8 32.3-14.4 4.4-1.9 9.1-3.1 13.7-4.6a34 34 0 0 1 14.6-1.2c5.7.8 11.8-.9 17.6-1.9 7.8-1.3 15.5-3.3 23.4-4.4 21.1-3.2 39.9-10.9 51.4-29.7 4.7-7.5 9.6-14.2 16.2-20.1 9.5-8.3 8.8-13.2-1.9-20a40.7 40.7 0 0 0-9.4-4.5c-17.5-4.9-34.8-10.3-52.5-14.1-12.5-2.7-25.4-3-38.1-4.7s-25.1-8.2-32.6-21.1c-4.9-8.6-13.8-13.8-23-16.8-10.9-3.5-22.3-5.5-33.4-8.1l-5.3-1h204v682.9H3060z"/><path fill="#fff" d="M4092 685.8c-18 2.2-34.6 9.3-51.5 15.2-5.2 1.8-11.1 4.9-14.1 9.2-6.2 8.9-10.7 18.9-9.2 30.4.2 1.5 0 3.5-.9 4.4-19.5 20.8-33.1 45.3-45.7 70.6q-11.4 22.8-22.7 45.6c-2.4 4.8-3.9 10-6.5 14.5-7 12.1-17.6 20.3-29.5 27-19.1 10.6-39.9 16.7-60.9 22-29.5 7.5-59.8 11.6-88.7 21.5-10.2 3.5-20.9 2.8-31.6 1.6-23.2-2.5-46.5-4.3-69.7-5.8-40.4-2.7-80.8-5.1-121.2-7.6-26.9-1.6-53.6.5-80.4 2.9s-55 5.1-82.6 7.2c-11.3.9-22.7-.1-33.9.9-22.8 2.2-43.9 10.7-64.7 19.8-4.6 2-9 4.4-13.7 6-27.3 9.8-46.1 29.8-62.2 52.7-14.7 21.1-23.7 45-33.3 68.6-8.1 19.8-16.1 39.8-25.8 58.9s-24.4 35.7-41.8 49.1c-8.6 6.6-17.3 13-25.3 20.3-5.9 5.4-10.8 11.9-16.1 18v-553z"/><path fill="#f3e54c" d="M249 7h-45c-1.8.4-3.6.6-5.3 1.1-11.2 2.6-22.5 4.6-33.4 8.1-9.2 3-18.1 8.2-23 16.7-7.5 13-18.4 19.4-32.6 21.2C97 55.7 84 56 71.6 58.7 53.9 62.6 36.5 68 19.1 72.9a33.9 33.9 0 0 0-9.4 4.5c-10.7 6.7-11.4 11.7-2 20 6.7 5.9 11.6 12.5 16.2 20.1 11.6 18.8 30.4 26.5 51.5 29.6 7.8 1.2 15.6 3.2 23.4 4.5 5.8 1 11.9 2.6 17.6 1.9a32 32 0 0 1 14.5 1.2c4.6 1.5 9.3 2.7 13.8 4.6 10.8 4.5 21.7 9.2 32.3 14.3 1.8.9 3.6 4.1 3.7 6.2.4 14.1.3 28.3.5 42.4a73.3 73.3 0 0 0 .9 11.5c1.4 8.2 6.3 11.1 14.6 10.4 10-.9 18.9-3.8 26-12.1 3.6 8.6 6.5 16.8 10.4 24.4 6.9 13.3 9 27.3 8.9 42.1-.2 34.8-.5 69.6 0 104.4a64.1 64.1 0 0 0 5.1 23.6c8.2 18.9 21.8 34.3 35.6 49.2 9.6 10.5 20.9 19.6 32.1 28.5 15.5 12.3 31.7 23.7 47.5 35.5.9.7 2.1 1.5 2.3 2.4 2.5 8.7 6.4 17.2 6.9 26 1.3 22.4 1.1 44.9 1.7 67.4.1 3.2-1.5 4.2-4.1 4.3s-8.1-.2-11.9.6-9.2 1.7-11.7 4.5c-6.2 7-13.4 13.3-16.9 22.6-1.9 4.8-2.3 8.4 2 11.4a45.3 45.3 0 0 0 13.9 6.5 111.9 111.9 0 0 0 19.1 3.1c13.8 1.4 27.3.3 40.4-4.4a5.3 5.3 0 0 0 2.3-1.6c3.7-4.1 7.4-8.1 10.9-12.4a50.3 50.3 0 0 0 6.4-9.4 154.7 154.7 0 0 0 8-17c1.8-4.7 3.7-9.6 4.3-14.6 1.1-9.6 0-19-6.1-27.1a3.9 3.9 0 0 1-.6-1.8c-.1-10.3-.1-20.5-.1-31.3 21.8 10.2 43.6 8.7 65.3 3.5s40.8-11 61.2-16.7c24.8-6.9 49.7-13.8 72.8-25.8a112.6 112.6 0 0 1 18.3-7.7 237.3 237.3 0 0 1 26.2-6.2c27.9-5.1 55.8-9.6 83.6-15s54.6-13.5 78.9-28.7c7.8-5 16.3-8.9 24.3-13.7 5.9-3.7 11.3-2.8 17 .1 11.2 5.8 20.6 14.1 26.9 24.8 12.1 20.8 29.8 34.5 51.3 44.1 14.8 6.6 29.3 13.6 44.1 20.2 10.7 4.8 15.4 11.6 12.4 25.6-3.6 16.8-8.8 33.2-13.6 49.6a8.5 8.5 0 0 1-5.2 5.1c-21.4 5.4-33.6 18.9-37.9 40.4-.7 3.6-.2 5.8 3 6.5a79.8 79.8 0 0 0 16.1 2.1c9.2.1 18.3-.7 27.3 2.3a17 17 0 0 0 10.7-.3 130.2 130.2 0 0 0 19.1-8.4 11.4 11.4 0 0 0 5.1-6.3c3.5-12.1 6.7-24.3 9.9-36.6s8.3-26.2 18.3-36 16.5-24 18.9-38.8a17.4 17.4 0 0 0-.7-8.2c-3.7-10.6-7.8-20.9-11.6-31.4-6-16.5-7.8-33.7-.7-49.8 10.6-24.3 17.4-49.3 19.4-75.6.8-11.5 3.8-23.1.6-34.7-1.4-4.8-3.2-9.4-5.1-14.6a45.3 45.3 0 0 1 4 2.7c17.6 13.8 29 32 35.9 53 16.6 51.1 43 96.3 81.7 133.8 20.6 19.9 44.3 34.2 74.4 33.8v-2c-5.4-6-10.2-12.6-16.1-17.9-8-7.3-16.8-13.7-25.3-20.3-17.4-13.5-31.9-29.7-41.8-49.1s-17.7-39.1-25.8-58.9c-9.7-23.6-18.6-47.6-33.3-68.6-16.1-23-34.9-42.9-62.2-52.7-4.7-1.7-9.2-4.1-13.7-6-20.9-9.1-41.9-17.6-64.7-19.8-11.3-1.1-22.7-.1-33.9-.9-27.6-2.2-55.1-4.8-82.7-7.3s-53.4-4.4-80.3-2.8c-40.4 2.5-80.8 4.8-121.2 7.5-23.2 1.6-46.5 3.3-69.7 5.9-10.8 1.2-21.4 1.9-31.6-1.6-28.9-10-59.2-14-88.7-21.5-21.1-5.3-41.8-11.4-60.9-22-11.9-6.7-22.6-14.9-29.5-27-2.6-4.6-4.2-9.8-6.5-14.5q-11.2-23-22.7-45.6c-12.6-25.3-26.3-49.8-45.8-70.6-.8-.9-1-3-.8-4.4 1.4-11.5-3-21.6-9.2-30.4-3-4.3-8.9-7.5-14.1-9.3C283.6 16.4 267 9.3 249 7z"/><path fill="#fff" d="M1281 562c-30.1.4-53.8-13.9-74.4-33.8-38.7-37.5-65.1-82.7-81.7-133.8-6.9-21-18.3-39.2-35.9-53a45.3 45.3 0 0 0-4-2.7c1.9 5.2 3.7 9.8 5.1 14.6 3.2 11.6.2 23.2-.6 34.7-2 26.3-8.8 51.3-19.4 75.6-7.1 16.1-5.3 33.3.7 49.8 3.8 10.5 7.9 20.8 11.6 31.4a17.4 17.4 0 0 1 .7 8.2c-2.4 14.8-7.9 27.9-18.9 38.8s-14.9 22.6-18.3 36-6.4 24.5-9.9 36.6a11.4 11.4 0 0 1-5.1 6.3 130.2 130.2 0 0 1-19.1 8.4 17 17 0 0 1-10.7.3c-9-3-18.1-2.2-27.3-2.3a79.8 79.8 0 0 1-16.1-2.1c-3.2-.7-3.7-2.9-3-6.5 4.3-21.5 16.5-35 37.9-40.4a8.5 8.5 0 0 0 5.2-5.1c4.8-16.4 10-32.8 13.6-49.6 3-14-1.7-20.8-12.4-25.6-14.8-6.6-29.3-13.6-44.1-20.2-21.5-9.6-39.2-23.3-51.3-44.1-6.3-10.7-15.7-19-26.9-24.8-5.7-2.9-11.1-3.8-17-.1-8 4.8-16.5 8.7-24.3 13.7-24.3 15.2-51.1 23.4-78.9 28.7s-55.7 9.9-83.6 15a237.3 237.3 0 0 0-26.2 6.2 112.6 112.6 0 0 0-18.3 7.7c-23.1 12-48 18.9-72.8 25.8-20.4 5.7-40.7 11.8-61.2 16.7s-43.5 6.7-65.3-3.5c0 10.8 0 21 .1 31.3a3.9 3.9 0 0 0 .6 1.8c6.1 8.1 7.2 17.5 6.1 27.1-.6 5-2.5 9.9-4.3 14.6a154.7 154.7 0 0 1-8 17 50.3 50.3 0 0 1-6.4 9.4c-3.5 4.3-7.2 8.3-10.9 12.4a5.3 5.3 0 0 1-2.3 1.6c-13.1 4.7-26.6 5.8-40.4 4.4a111.9 111.9 0 0 1-19.1-3.1 45.3 45.3 0 0 1-13.9-6.5c-4.3-3-3.9-6.6-2-11.4 3.5-9.3 10.7-15.6 16.9-22.6 2.5-2.8 7.6-3.7 11.7-4.5s7.9-.4 11.9-.6 4.2-1.1 4.1-4.3c-.6-22.5-.4-45-1.7-67.4-.5-8.8-4.4-17.3-6.9-26-.2-.9-1.4-1.7-2.3-2.4-15.8-11.8-32-23.2-47.5-35.5-11.2-8.9-22.5-18-32.1-28.5-13.8-14.9-27.4-30.3-35.6-49.2a64.1 64.1 0 0 1-5.1-23.6c-.5-34.8-.2-69.6 0-104.4.1-14.8-2-28.8-8.9-42.1-3.9-7.6-6.8-15.8-10.4-24.4-7.1 8.3-16 11.2-26 12.1-8.3.7-13.2-2.2-14.6-10.4a73.3 73.3 0 0 1-.9-11.5c-.2-14.1-.1-28.3-.5-42.4-.1-2.1-1.9-5.3-3.7-6.2-10.6-5.1-21.5-9.8-32.3-14.3-4.5-1.9-9.2-3.1-13.8-4.6a32 32 0 0 0-14.5-1.2c-5.7.7-11.8-.9-17.6-1.9-7.8-1.3-15.6-3.3-23.4-4.5-21.1-3.1-39.9-10.8-51.5-29.6-4.6-7.6-9.5-14.2-16.2-20.1-9.4-8.3-8.7-13.3 2-20a33.9 33.9 0 0 1 9.4-4.5C36.5 68 53.9 62.6 71.6 58.7c12.4-2.7 25.4-3 38.1-4.6 14.2-1.8 25.1-8.2 32.6-21.2 4.9-8.5 13.8-13.7 23-16.7 10.9-3.5 22.2-5.5 33.4-8.1 1.7-.5 3.5-.7 5.3-1.1H0v682.9h1281z"/><path fill="#fff" d="M249 7c18 2.3 34.6 9.4 51.5 15.2 5.2 1.8 11.1 5 14.1 9.3 6.2 8.8 10.6 18.9 9.2 30.4-.2 1.4 0 3.5.8 4.4 19.5 20.8 33.2 45.3 45.8 70.6q11.4 22.7 22.7 45.6c2.3 4.7 3.9 9.9 6.5 14.5 6.9 12.1 17.6 20.3 29.5 27 19.1 10.6 39.8 16.7 60.9 22 29.5 7.5 59.8 11.5 88.7 21.5 10.2 3.5 20.8 2.8 31.6 1.6 23.2-2.6 46.5-4.3 69.7-5.9 40.4-2.7 80.8-5 121.2-7.5 26.9-1.6 53.6.5 80.3 2.8s55.1 5.1 82.7 7.3c11.2.8 22.6-.2 33.9.9 22.8 2.2 43.8 10.7 64.7 19.8 4.5 1.9 9 4.3 13.7 6 27.3 9.8 46.1 29.7 62.2 52.7 14.7 21 23.6 45 33.3 68.6 8.1 19.8 16.1 39.8 25.8 58.9s24.4 35.6 41.8 49.1c8.5 6.6 17.3 13 25.3 20.3 5.9 5.3 10.7 11.9 16.1 17.9V7z"/><path fill="#f3794a" d="M2409 0h-45l-5.3 1c-11.2 2.7-22.5 4.7-33.4 8.2-9.2 3-18.1 8.2-23 16.7-7.5 12.9-18.4 19.3-32.6 21.2-12.7 1.6-25.7 1.9-38.1 4.6-17.7 3.8-35.1 9.2-52.5 14.2a33.9 33.9 0 0 0-9.4 4.5c-10.7 6.7-11.4 11.6-2 20 6.7 5.8 11.6 12.5 16.2 20.1 11.6 18.7 30.4 26.5 51.5 29.6 7.8 1.2 15.6 3.2 23.4 4.5 5.8 1 11.9 2.6 17.6 1.9a30.7 30.7 0 0 1 14.5 1.2c4.6 1.4 9.3 2.7 13.8 4.5 10.8 4.6 21.7 9.3 32.3 14.4 1.8.9 3.6 4 3.7 6.2.4 14.1.3 28.3.5 42.4a86.2 86.2 0 0 0 .8 11.4c1.5 8.3 6.4 11.2 14.7 10.5 10-.9 18.9-3.8 26-12.1 3.6 8.6 6.5 16.8 10.4 24.4 6.9 13.3 9 27.3 8.9 42-.2 34.9-.5 69.7 0 104.5a64.1 64.1 0 0 0 5.1 23.6c8.2 18.9 21.8 34.3 35.5 49.2 9.7 10.5 21 19.6 32.2 28.5 15.5 12.2 31.7 23.7 47.5 35.5.9.7 2.1 1.5 2.3 2.4 2.5 8.6 6.4 17.2 6.9 26 1.3 22.4 1.1 44.9 1.7 67.4.1 3.2-1.5 4.1-4.1 4.3s-8.1-.3-11.9.5-9.2 1.8-11.7 4.6c-6.2 6.9-13.4 13.3-16.9 22.5-1.9 4.9-2.3 8.5 2 11.5a47.7 47.7 0 0 0 13.9 6.5 111.9 111.9 0 0 0 19.1 3.1c13.8 1.4 27.3.3 40.4-4.4a5.5 5.5 0 0 0 2.3-1.7c3.7-4 7.4-8 10.9-12.3a53.8 53.8 0 0 0 6.4-9.4c2.9-5.5 5.6-11.2 8-17s3.7-9.6 4.3-14.6c1.1-9.6-.1-19-6.1-27.1a4.2 4.2 0 0 1-.6-1.9c-.1-10.2-.1-20.4-.1-31.2 21.8 10.1 43.6 8.7 65.3 3.5s40.8-11 61.2-16.7c24.8-7 49.7-13.9 72.8-25.8a112.6 112.6 0 0 1 18.3-7.7 237.3 237.3 0 0 1 26.2-6.2c27.9-5.1 55.8-9.7 83.6-15s54.6-13.5 78.8-28.7c7.9-5 16.4-8.9 24.4-13.8 5.9-3.6 11.3-2.7 17 .2a65.5 65.5 0 0 1 26.9 24.7c12.1 20.9 29.8 34.6 51.3 44.2 14.8 6.6 29.3 13.6 44 20.2 10.8 4.8 15.5 11.6 12.5 25.6-3.6 16.8-8.8 33.2-13.6 49.6a8.5 8.5 0 0 1-5.2 5.1c-21.4 5.4-33.6 18.9-37.9 40.4-.7 3.6-.2 5.8 3 6.5a79.8 79.8 0 0 0 16.1 2.1c9.2.1 18.3-.7 27.3 2.3a17.8 17.8 0 0 0 10.7-.3 120.8 120.8 0 0 0 19.1-8.5 11.2 11.2 0 0 0 5.1-6.2c3.5-12.1 6.7-24.3 9.9-36.6s8.3-26.2 18.3-36.1 16.5-24 18.9-38.8a17.6 17.6 0 0 0-.7-8.2c-3.7-10.5-7.8-20.8-11.6-31.3-6-16.5-7.8-33.7-.7-49.9 10.6-24.2 17.4-49.2 19.4-75.5.8-11.6 3.8-23.2.5-34.8-1.3-4.7-3.1-9.3-5-14.6l4 2.7c17.6 13.9 29 32.1 35.9 53.1 16.6 51.1 43 96.2 81.7 133.7 20.6 20 44.3 34.3 74.4 33.9v-2c-5.4-6-10.2-12.6-16.1-18-8-7.2-16.8-13.6-25.3-20.2-17.4-13.5-31.9-29.7-41.8-49.1s-17.7-39.1-25.8-59c-9.7-23.5-18.6-47.5-33.3-68.5-16.1-23-34.9-42.9-62.3-52.7-4.6-1.7-9.1-4.1-13.7-6.1-20.8-9-41.8-17.5-64.6-19.7-11.3-1.1-22.7-.1-33.9-1-27.6-2.1-55.1-4.8-82.7-7.2s-53.4-4.4-80.3-2.8c-40.4 2.4-80.8 4.8-121.2 7.5-23.2 1.6-46.5 3.3-69.7 5.8-10.8 1.2-21.4 1.9-31.6-1.6-28.9-9.9-59.3-13.9-88.7-21.4-21.1-5.4-41.8-11.4-60.9-22.1-11.9-6.6-22.6-14.8-29.5-26.9-2.6-4.6-4.2-9.8-6.5-14.6q-11.2-22.8-22.7-45.6c-12.6-25.2-26.3-49.7-45.8-70.5a6.5 6.5 0 0 1-.8-4.4c1.4-11.6-3-21.6-9.2-30.4-3-4.4-8.9-7.5-14.1-9.3C2443.6 9.4 2427 2.3 2409 0z"/><path fill="#fff" d="M3441 555c-30.1.4-53.8-13.9-74.4-33.9-38.7-37.5-65.1-82.6-81.7-133.7-6.9-21-18.3-39.2-35.9-53.1l-4-2.7c1.9 5.3 3.7 9.9 5 14.6 3.3 11.6.3 23.2-.5 34.8-2 26.3-8.8 51.3-19.4 75.5-7.1 16.2-5.3 33.4.7 49.9 3.8 10.5 7.9 20.8 11.6 31.3a17.6 17.6 0 0 1 .7 8.2c-2.4 14.8-7.9 28-18.9 38.8s-14.9 22.7-18.3 36.1-6.4 24.5-9.9 36.6a11.2 11.2 0 0 1-5.1 6.2 120.8 120.8 0 0 1-19.1 8.5 17.8 17.8 0 0 1-10.7.3c-9-3-18.1-2.2-27.3-2.3a79.8 79.8 0 0 1-16.1-2.1c-3.2-.7-3.7-2.9-3-6.5 4.3-21.5 16.5-35 37.9-40.4a8.5 8.5 0 0 0 5.2-5.1c4.8-16.4 10-32.8 13.6-49.6 3-14-1.7-20.8-12.5-25.6-14.7-6.6-29.2-13.6-44-20.2-21.5-9.6-39.2-23.3-51.3-44.2a65.5 65.5 0 0 0-26.9-24.7c-5.7-2.9-11.1-3.8-17-.2-8 4.9-16.5 8.8-24.4 13.8-24.2 15.2-51 23.3-78.8 28.7s-55.7 9.9-83.6 15a237.3 237.3 0 0 0-26.2 6.2 112.6 112.6 0 0 0-18.3 7.7c-23.1 11.9-48 18.8-72.8 25.8-20.4 5.7-40.7 11.7-61.2 16.7s-43.5 6.6-65.3-3.5c0 10.8 0 21 .1 31.2a4.2 4.2 0 0 0 .6 1.9c6 8.1 7.2 17.5 6.1 27.1-.6 5-2.5 9.9-4.3 14.6s-5.1 11.5-8 17a53.8 53.8 0 0 1-6.4 9.4c-3.5 4.3-7.2 8.3-10.9 12.3a5.5 5.5 0 0 1-2.3 1.7c-13.1 4.7-26.6 5.8-40.4 4.4a111.9 111.9 0 0 1-19.1-3.1 47.7 47.7 0 0 1-13.9-6.5c-4.3-3-3.9-6.6-2-11.5 3.5-9.2 10.7-15.6 16.9-22.5 2.5-2.8 7.6-3.7 11.7-4.6s7.9-.3 11.9-.5 4.2-1.1 4.1-4.3c-.6-22.5-.4-45-1.7-67.4-.5-8.8-4.4-17.4-6.9-26-.2-.9-1.4-1.7-2.3-2.4-15.8-11.8-32-23.3-47.5-35.5-11.2-8.9-22.5-18-32.2-28.5-13.7-14.9-27.3-30.3-35.5-49.2a64.1 64.1 0 0 1-5.1-23.6c-.5-34.8-.2-69.6 0-104.5.1-14.7-2-28.7-8.9-42-3.9-7.6-6.8-15.8-10.4-24.4-7.1 8.3-16 11.2-26 12.1-8.3.7-13.2-2.2-14.7-10.5a86.2 86.2 0 0 1-.8-11.4c-.2-14.1-.1-28.3-.5-42.4-.1-2.2-1.9-5.3-3.7-6.2-10.6-5.1-21.5-9.8-32.3-14.4-4.5-1.8-9.2-3.1-13.8-4.5a30.7 30.7 0 0 0-14.5-1.2c-5.7.7-11.8-.9-17.6-1.9-7.8-1.3-15.6-3.3-23.4-4.5-21.1-3.1-39.9-10.9-51.5-29.6-4.6-7.6-9.5-14.3-16.2-20.1-9.4-8.4-8.7-13.3 2-20a33.9 33.9 0 0 1 9.4-4.5c17.4-5 34.8-10.4 52.5-14.2 12.4-2.7 25.4-3 38.1-4.6 14.2-1.9 25.1-8.3 32.6-21.2 4.9-8.5 13.8-13.7 23-16.7 10.9-3.5 22.2-5.5 33.4-8.2l5.3-1h-204v682.9h1281z"/><path fill="#fff" d="M2409 0c18 2.3 34.6 9.4 51.5 15.2 5.2 1.8 11.1 4.9 14.1 9.3 6.2 8.8 10.6 18.8 9.2 30.4a6.5 6.5 0 0 0 .8 4.4c19.5 20.8 33.2 45.3 45.8 70.5q11.4 22.8 22.7 45.6c2.3 4.8 3.9 10 6.5 14.6 6.9 12.1 17.6 20.3 29.5 26.9 19.1 10.7 39.8 16.7 60.9 22.1 29.4 7.5 59.8 11.5 88.7 21.4 10.2 3.5 20.8 2.8 31.6 1.6 23.2-2.5 46.5-4.2 69.7-5.8 40.4-2.7 80.8-5.1 121.2-7.5 26.9-1.6 53.6.4 80.3 2.8s55.1 5.1 82.7 7.2c11.2.9 22.6-.1 33.9 1 22.8 2.2 43.8 10.7 64.6 19.7 4.6 2 9.1 4.4 13.7 6.1 27.4 9.8 46.2 29.7 62.3 52.7 14.7 21 23.6 45 33.3 68.5 8.1 19.9 16.1 39.9 25.8 59s24.4 35.6 41.8 49.1c8.5 6.6 17.3 13 25.3 20.2 5.9 5.4 10.7 12 16.1 18V0z"/></svg>